<svg
    xmlns="http://www.w3.org/2000/svg"
    width="241"
    height="104"
    viewBox="0 0 241 104"
  >
    <g fill="none" fill-rule="evenodd">
      <path
        fill="#E00"
        d="M37.75 90.463c1.016-.598 3.3-1.817 3.573-1.982.437-.261.698-.228.712-.093.055.518.04 1.61.701 1.833.19.063.685-.168.774-.036.24.358.256.293.32.398.076.13.406.056.477.123.183.166-.012.386.094.502.171.182.491-.116.653-.083.296.058.37.39.32.605-.083.351.134.62.71.143.3-.252.32-.123.579-.252.154-.076.409-.068.518.041.11.108.282.298.444.358.24.09.497-.002.644.059.225.09.231.417.422.444.189.028.383-.341.506-.228.343.323-.29.88.148 1.003.238.066.334-.122.524-.15.19-.029.3-.254.465-.254.163 0 .284.194.49.08.17-.091.304-.16.462-.253.23-.139.47-.07.603-.18.163-.13.04-.488.518-.4.493.092-.078.543.138.726.168.141.574.005.705-.04.268-.087.513-.414.602-.64.11-.273.52-1.173.681-1.415.164-.247.573-1.2.79-1.528.22-.323 1.09-1.716 1.173-1.931.08-.22.394-.519.474-.682.083-.164.26-.709.478-1.147.219-.433.817-1.306.874-1.469.053-.163.514-1.225.678-1.552.164-.327.737-1.075.874-1.43.136-.354.515-1.104.515-1.104l.409-.68s.136-.3.326-.708c.193-.41.764-1.28.929-1.581.162-.3.625-.927.625-.927l.354-.788.272-.599s.219-.709.328-.9c.108-.189.489-.653.6-.898.108-.247.435-1.337.6-1.662.163-.328.951-1.741 1.034-2.016.08-.271.898-1.743.98-2.04.082-.303.11-.71.216-.903.11-.188.438-.681.492-.817.054-.135.599-1.443.681-1.633.082-.19.137-.546.355-.546.217 0 .374.236.517.436.163.233.49.192.682.381.19.192.815.873.845.982.025.109.379.137.46.245.083.11.138.383.246.436.11.054.655.434.762.599.11.163.245.493.383.6.135.109.761.492.842.653.082.163.982 1.252 1.09 1.443.11.19.192.519.272.656.083.134.408.326.438.462.025.137.054.627.136.763.08.137.46.3.516.436.055.136.22.653.302.736.081.08.242.191.296.297.056.11.113.712.193.817.08.11.353.573.434.764.083.189.358.544.41.68.054.135.08.684.136.87.055.193.3.6.326.713.029.107.084.434.084.434l.217.518s.245.516.245.709c0 .189.054.407.081.542.029.138.246.488.246.6 0 .11.3.737.3.737s-.056.544 0 .68c.054.135.298.516.298.652 0 .137-.08.493-.08.493l.136.219s-.082.297-.027.406c.053.108-.055.356.027.436.08.082.299.658.299.658-.164.191-11.526 5.446-16.398 7.717-7.018 3.277-21.608 10.594-23.16 11.492-1.552.898-2.531 1.416-2.908 1.223-.861-.445-2.264-1.69-3.223-4.359-.812-2.25-.815-4.123-.748-5.062.053-.72-.003-1.258 1.087-1.887.38-.22 2.382-1.345 3.398-1.945zM17.545 50.227c-.058-.124-.12-.338.04-.49.161-.156.382-.364.573-.41.163-.04.09-.322.605-.396.42-.06.643-.566.834-.897.12-.212.925-.745 1.656-1.196 1.415-.88 4.841-2.805 11.245-6.133 8.465-4.397 22.347-10.71 33.993-15.088 12.532-4.714 29.528-9.659 33.231-10.626.386-.099.762-.324 1.091-.378.326-.057.653.108 1.414-.057.764-.16.872-.38 1.146-.434.273-.055.652.054.817.108.162.055.653.055.817.165.164.107.217.272.217.49 0 .216.328.435.328.435s.282.136.327.327c.042.188-.055.707-.055.707s.25-.018.325.22c.08.236 0 .38 0 .38s.33.216.436.49c.11.273 0 1.09.11 1.361.108.273.716.582.817.928.104.344.055.818.055.818s.381.053.326.432c-.054.384-.544 1.255-.544 1.473 0 .219.328.818.218 1.252-.109.438-.325.49-.454.567-.132.078-1.194.241-1.671.36-4.554 1.137-28.494 7.28-42.327 12.639-8.885 3.44-18.562 6.69-30.835 12.583-.33.16-1.131.574-1.131.574s-1.016.53-1.396.693c-.381.162-1.285.75-1.285.75s-.737.433-.818-.054c-.054-.328-.371-.179-.672-.294-.25-.096-.405-.307-.479-.381-.162-.162-.675.115-.946.226-.273.107-.13.413-.519.449-.386.035-.589.682-.98.763-.392.079-1.211.517-1.634.708-.223.099-.636.556-.926.818-.283.251-1.105.517-1.376.408-.272-.111-.003-1.615-.313-2.154-.121-.21 0-.462-.054-.625-.055-.162-.273-.136-.437-.19-.163-.056-.218-.33-.326-.492-.11-.162-.074-.343-.254-.478-.055-.043-.217.013-.33 0-.112-.013-.292-.186-.39-.21-.172-.046-.413-.02-.47-.141zm52.91-7.601c-.567-.34-.373-.658.285-.939 4.054-1.734 14.29-5.382 20.155-7.246 5.011-1.589 18.85-6.096 22.71-7.207.923-.264 1.298-.254 1.709.18 1.043 1.11 2.06 2.605 3.017 4.461.885 1.713 1.646 4.19 1.946 5.747.22 1.14-.304 1.335-.924 1.613-4.283 1.916-14.85 6.544-19.245 8.62-4.293 2.028-12.148 5.804-14.81 7.143-1.123.565-.936.798-1.7-.074-.231-.261-.601-.87-.707-1.034-.11-.166-1.581-1.472-1.746-1.635-.162-.165-.98-1.145-1.196-1.307-.221-.165-.928-1.144-1.145-1.254-.218-.108-.588-.285-.749-.447-.165-.165-.45-.506-.613-.613-.165-.111-.533-.492-.533-.492l-.503-.463-.436-.492s-.382-.487-.653-.596c-.272-.11-.653-.544-.762-.712-.11-.16-.982-1.25-1.418-1.524a47.59 47.59 0 0 1-1.701-1.116c-.22-.163-.51-.332-.982-.613zM86.046 57.55c-.421-.419.117-.479.6-.666 1.787-.689 12.45-4.026 21.735-6.47 9.248-2.432 22.637-5.209 24.623-5.61.838-.172 1.157-.043 1.582.64.492.793 1.514 3.431 1.907 5.558.5 2.698.023 5.45-.217 6.103-.202.546-.958.584-2.762 1.072-1.082.296-5.698 1.484-7.59 2.031-2.176.633-7.95 2.303-10.078 3.029-2.63.896-6.096 2.039-6.096 2.039l-18.363.313s-.273-1.237-.436-1.35c-.165-.108-.438-.708-.6-.87-.162-.165-.381-.763-.381-.763s-.163-.653-.327-.763c-.164-.109-.558-1.049-.721-1.158-.167-.109-.534-.584-.694-.803-.166-.217-.26-.49-.532-.708-.27-.219-.612-.655-.83-.763-.22-.11-.402-.444-.82-.86zm-22.21-35.402c-.523.017-.98.012-1.105-.143-.07-.09.004-.235-.122-.348-.132-.115-.388-.082-.47-.018-.082.06-.06.06-.245.122-.184.061-.878-.186-1.124-.104-.245.083-.767.107-.94.023-.178-.09-.206-.567-.51-.697-.161-.068-.674-.348-.838-.632-.164-.287-.593-.712-.683-.915-.093-.204-.233-.53-.299-.7-.063-.166-.223-.509-.324-.632-.103-.124-.242-.23-.348-.347-.108-.117-.197-.505-.307-.674-.055-.087-.18-.26-.245-.39-.065-.129-.06-.28-.122-.428-.062-.15-.246-.367-.287-.51-.04-.144-.101-1.105-.082-1.838.02-.737.003-1.386.082-1.696.076-.296.225-.572.287-.88.061-.305.449-1.306.552-1.775.1-.47.346-1.35.47-1.657.121-.306.449-1.122.613-1.389.162-.266.776-1.184 1.02-1.49.244-.307 1.369-1.43 1.635-1.635a41.644 41.644 0 0 1 2.247-1.593c.188-.118.491-.123.491-.123l.265-.267s.144-.162.285-.265c.144-.1.491-.1.491-.1s.397-.312.816-.227c.185.04.308-.285.472-.325.162-.042.754-.122.836-.042.083.082.185.183.512.246.327.06.61-.016.736.02.168.046.346.265.47.304.12.043 1.612 1.417 1.816 1.758.07.12.09.343.125.41.06.117.317.275.406.653.07.3.371.392.41.818.02.258.5.472.633 1 .033.127.097.647.137.726.041.083.15.11.21.295s.102.452.083.674c-.023.226.386 1.064.346 1.574a6.974 6.974 0 0 1-.265 1.452c-.124.386-.04 1.12-.124 1.43-.08.304-.305 1.04-.347 1.266-.04.225-.674 1.776-.775 1.94-.103.163-.462.863-.625 1.067-.163.205-1.422 1.957-1.645 2.186-.226.223-.788.644-.897.813-.15.23-.27.501-.428.756-.252.4-.59.103-.757.386-.227.387-.66.49-.735.716-.114.35-.404.651-.531.756-.303.252-.945.439-1.266.45zM27.145 75.966s-5.375 1.814-7.518 2.575c-2.035.724-4.26 1.51-5.762 2.125-1.818.74-5.035 2.051-5.8 2.318-1.197.421-1.706.17-2.034-.54-.327-.707-1.1-2.19-1.536-3.932-.435-1.743-.593-3.188-.617-3.726-.026-.539.419-1.497 1.075-1.856.658-.36 2.217-1.314 3.471-2.036 2.394-1.375 10.647-5.778 15.562-8.317 5.205-2.695 13.414-6.672 17.825-8.852 4.415-2.178 11.66-5.61 12.533-5.991.87-.382 1.796-.818 2.232-.818.435 0 .273.218.273.382s-.15.232-.204.557c-.056.327-.016.696-.124 1.025-.11.324-.395.637-.448.854-.056.218-.098.997-.315 1.268-.217.272-.993 1.784-1.158 2.492-.162.708-.53 1.867-.693 2.138-.163.273-.681 1.294-.737 1.622-.052.327-.407 1.103-.516 1.43-.11.327-.762 1.54-.87 1.756-.111.219-.547 1.676-.657 1.893-.108.22-.544.871-.544.871l-.218.927s-.598.873-.598 1.036c0 .165-.436 1.636-.653 1.963-.219.324-1.255 2.666-1.472 3.484-.219.816-.601 2.016-.709 2.288-.108.271-.707 1.252-.815 1.58-.11.327-.6 1.96-.764 2.287-.163.328-.6 1.254-.6 1.58 0 .328-.326 1.037-.6 1.633-.271.6-.598 1.636-.761 2.018-.164.38-.383.647-.438.866-.054.217-.106.822-.162.986a9.059 9.059 0 0 1-.165.436c-.27.13-14.927 6.427-16.995 7.408-2.072.98-16.941 8.027-17.867 8.464-.925.436-2.16 1.384-3.051.78-1.178-.803-2.296-2.475-3.053-3.96-.63-1.237-1.316-3.304-1.417-4.793-.124-1.876.66-2.221 3.411-3.817 1.35-.782 12.05-6.423 15.481-8.2.974-.501 8.008-4.204 8.008-4.204z"
      ></path>
      <path
        fill="#000"
        d="M108.952 86.796h3.216l-3.544 13.91h-4.277l-2.265-8.89h-.035l-2.267 8.89H96.57l3.551-13.91h4.33l2.162 9.049h.032l2.308-9.05zm7.772 3.737c-.46 1.8 3.413 3.557 2.725 6.806-.4 1.898-1.613 3.621-5.42 3.614-1.193-.003-2.688-.327-3.72-.688l.776-3.232c.862.486 1.837.818 2.866.818.603 0 1.662-.057 1.972-1.17.42-1.49-3.44-3.286-2.822-6.525.316-1.648 2.012-3.605 5.277-3.605.919 0 2.164.16 3.304.8-.015.137-.714 2.889-.714 2.889-.702-.439-1.339-.734-2.423-.71-.566.013-1.63.271-1.821 1.003zm-37.189 0c-.462 1.843 3.415 3.557 2.726 6.806-.4 1.898-1.611 3.621-5.424 3.614-1.187-.003-2.687-.327-3.716-.688l.779-3.232c.857.486 1.837.818 2.86.818.602 0 1.661-.057 1.974-1.17.416-1.49-3.44-3.286-2.822-6.525.313-1.648 2.013-3.605 5.278-3.605.916 0 2.288.128 3.503.904-.016.136-.913 2.785-.913 2.785-.704-.439-1.341-.734-2.424-.71-.565.013-1.636.271-1.82 1.003zm94.279 5.311l2.313-9.045h3.214l-3.547 13.899h-4.283l-2.255-8.882h-.032l-2.27 8.882h-3.212l3.549-13.899h4.33l2.16 9.045h.033zm-40.868-6.066l-.619 2.439h4.432l-.759 2.98h-4.436l-1.404 5.501h-3.67l3.56-13.903h8.958l-.769 2.983h-5.293zm58.034-2.981l-.766 2.975h-3.327l-2.79 10.922h-3.669l2.791-10.922h-3.344l.763-2.975h10.342zm1.287 0h3.669l-3.55 13.908h-3.667l3.548-13.908zm11.958 8.396h-4.584l-.644 2.52h5.8l-.767 2.992h-9.465l3.552-13.908h9.469l-.764 2.975h-5.798l-.624 2.441h4.583l-.758 2.98zm23.478 0h-4.693l-.643 2.517h5.797l-.763 2.99h-9.465l3.556-13.903h9.461l-.763 2.975h-5.796l-.625 2.441 4.697-.002-.763 2.982zm7.625-4.662c-.503 1.768 3.414 3.558 2.725 6.806-.398 1.901-1.613 3.622-5.424 3.615-1.188-.002-2.687-.326-3.715-.687l.78-3.232c.857.486 1.834.816 2.857.816.609 0 1.662-.054 1.976-1.168.418-1.493-3.435-3.286-2.823-6.527.314-1.649 2.015-3.6 5.278-3.6.92 0 2.164.156 3.307.796-.016.14-.721 2.887-.721 2.887-.698-.434-1.336-.733-2.42-.707-.567.012-1.615.278-1.82 1.001zm-89.046 4.06c.044.295 1.323 6.114 1.323 6.114h-3.944l-1.274-7.704 1.197-.002h.1c1.61.027 2.463-.7 2.743-1.8.375-1.477-.756-1.477-1.284-1.477h-1.8l-2.801 10.983h-3.505l3.546-13.908h6.219c3.069.007 3.88 1.488 3.174 4.239-.396 1.565-1.837 3.216-3.694 3.556zm68.859-.005c.044.294 1.324 6.114 1.324 6.114h-3.943l-1.277-7.706H212.542c1.614.025 2.461-.701 2.742-1.799.376-1.48-.759-1.48-1.283-1.48h-1.799l-2.808 10.989h-3.502l3.545-13.907h6.217c3.073 0 3.885 1.48 3.182 4.232-.398 1.565-1.84 3.216-3.695 3.557zm-75.324-11.825h-9.46l3.548-13.898 9.461.002-.759 2.981h-5.797l-.624 2.44h4.727l-.758 2.98h-4.729l-.644 2.519h5.797l-.762 2.976zm-24.535.001h-9.464l3.55-13.897h9.461l-.76 2.978h-5.8l-.623 2.44h4.683l-.76 2.98h-4.68l-.644 2.522h5.797l-.76 2.977zm32.46.229c-4.183 0-6.373-2.587-5.185-7.215 1.192-4.603 4.714-7.187 8.895-7.187 1.024 0 2.412.16 3.272.48l-.795 3.122c-.84-.311-1.693-.562-2.644-.562-2.859 0-4.55 2.31-5.026 4.17-.557 2.148.006 4.142 2.263 4.142 1.448 0 2.56-.268 3.64-.563l-.882 3.218c-1.038.179-2.871.395-3.539.395zm9.023-.229h-3.666l3.547-13.9h3.668l-3.55 13.9zm-61.671-9.936l-2.538 9.936h-3.102l3.549-13.893h5.16l-.234 8.73h.032l4.327-8.73h4.869l-3.542 13.893h-3.104l2.534-9.959h-.034l-4.954 9.962-3.124-.004.196-9.935h-.035zm67.075 9.935h-3.216l3.568-13.898 4.316.002 2.161 9.044h.032l2.311-9.044h3.21l-3.545 13.897h-4.278l-2.257-8.874h-.038l-2.264 8.873zm16.946-10.15c-.47 1.834 3.415 3.555 2.726 6.81-.404 1.895-1.612 3.618-5.422 3.611-1.19-.003-2.691-.327-3.72-.688l.78-3.231c.857.485 1.835.817 2.86.817.605 0 1.662-.053 1.976-1.17.418-1.49-3.44-3.286-2.826-6.526.316-1.646 2.014-3.602 5.282-3.602.916 0 2.164.156 3.301.797-.016.14-.715 2.887-.715 2.887-.7-.436-1.34-.73-2.423-.706-.563.012-1.63.27-1.819 1.002zm-88.74 14.185h4.403c.273 4.557.832 9.287 1.294 13.907h-3.891l-.236-4.016h-4.298l-2.408 4.016h-4.02c3.154-4.535 6.139-9.242 9.155-13.907zm-1.11 6.978l2.447-3.986h.036l.24 3.986h-2.723zm69.72-7.199c4.14 0 6.421 2.694 5.063 7.589-1.295 4.515-4.838 6.811-8.732 6.811-4.145 0-6.312-2.586-5.13-7.212 1.175-4.601 4.661-7.188 8.799-7.188zm1.486 7.188c-.601 2.212-2.294 4.167-4.384 4.167-2.214 0-2.787-2-2.24-4.143.545-2.15 2.147-4.17 4.365-4.17 2.132 0 2.774 1.91 2.259 4.146zm-29.727-17.961c-1.034 4.043-3.7 6.959-7.717 6.962h-5.814l3.546-13.901h6.587c1.713 0 4.897 1.06 3.398 6.939zm-3.668 0c-.525 2.04-1.977 3.981-4.004 3.981h-1.586l2.025-7.944h1.833c1.954 0 2.393 1.38 1.732 3.963z"
      ></path>
    </g>
  </svg>
